<svg width="214" height="242" viewBox="0 0 214 242" fill="none" xmlns="http://www.w3.org/2000/svg">
<path d="M10.1333 2.96706C7.6 4.30039 4.26667 7.10039 2.8 9.10039C0 12.8337 0 13.9004 0 108.034C0 202.167 0 203.234 2.8 206.967C9.06667 215.634 6.93333 215.367 89.6 215.367H164.533L170.133 224.7C178.667 239.1 186 243.634 196.933 241.5C205.867 239.767 214 229.9 214 221.1C214 216.434 156.8 48.3004 151.867 38.5671C144.4 23.9004 130.267 11.5004 113.2 4.96706C104 1.50039 104 1.50039 59.3333 0.967061C18.5333 0.700394 14.2667 0.833728 10.1333 2.96706ZM102.667 18.5671C112.8 21.2337 120.4 25.6337 128 33.2337C150 55.2337 149.467 89.3671 126.8 111.634C112 126.3 112.133 127.1 134.8 165.5C144.8 182.3 153.2 196.834 153.6 197.767C154.133 199.1 140.267 199.367 85.2 199.1L16 198.7L15.6 109.367C15.4667 60.1671 15.6 19.2337 16 18.3004C16.9333 15.9004 93.3333 16.0337 102.667 18.5671ZM178 161.234C199.467 223.9 199.733 225.367 192.533 225.367C189.733 225.367 185.867 219.634 163.733 182.7C149.6 159.234 136.8 137.5 135.067 134.434L132.133 128.967L139.6 121.367C143.733 117.234 149.067 110.167 151.333 105.767C154.4 100.167 156 98.3004 156.667 99.5004C157.2 100.567 166.8 128.3 178 161.234Z" fill="#10316B"/>
</svg>
