<svg width="1135" height="296" viewBox="0 0 1135 296" fill="none" xmlns="http://www.w3.org/2000/svg">
<path d="M10.1333 15.9671C7.6 17.3004 4.26667 20.1004 2.8 22.1004C0 25.8337 0 26.9004 0 121.034C0 215.167 0 216.234 2.8 219.967C9.06667 228.634 6.93333 228.367 89.6 228.367H164.533L170.133 237.7C178.667 252.1 186 256.634 196.933 254.5C205.867 252.767 214 242.9 214 234.1C214 229.434 156.8 61.3004 151.867 51.5671C144.4 36.9004 130.267 24.5004 113.2 17.9671C104 14.5004 104 14.5004 59.3333 13.9671C18.5333 13.7004 14.2667 13.8337 10.1333 15.9671ZM102.667 31.5671C112.8 34.2337 120.4 38.6337 128 46.2337C150 68.2337 149.467 102.367 126.8 124.634C112 139.3 112.133 140.1 134.8 178.5C144.8 195.3 153.2 209.834 153.6 210.767C154.133 212.1 140.267 212.367 85.2 212.1L16 211.7L15.6 122.367C15.4667 73.1671 15.6 32.2337 16 31.3004C16.9333 28.9004 93.3333 29.0337 102.667 31.5671ZM178 174.234C199.467 236.9 199.733 238.367 192.533 238.367C189.733 238.367 185.867 232.634 163.733 195.7C149.6 172.234 136.8 150.5 135.067 147.434L132.133 141.967L139.6 134.367C143.733 130.234 149.067 123.167 151.333 118.767C154.4 113.167 156 111.3 156.667 112.5C157.2 113.567 166.8 141.3 178 174.234Z" fill="#10316B"/>
<path d="M315.12 192.16C315.12 196.48 315.64 200.52 316.68 204.28C317.72 207.96 319.44 210.8 321.84 212.8C321.12 215.44 319.76 218.24 317.76 221.2C315.84 224.16 313.8 226.36 311.64 227.8C302.68 226.84 296.04 223.16 291.72 216.76C287.4 210.28 285.24 202.76 285.24 194.2V106.96C289.48 106.24 294.44 105.88 300.12 105.88C305.64 105.88 310.64 106.24 315.12 106.96V192.16ZM217.08 134.2C217.08 129.8 216.72 125.68 216 121.84C215.36 117.92 214.16 114.52 212.4 111.64C214.56 109.8 217.28 108.28 220.56 107.08C223.84 105.88 227.36 105.28 231.12 105.28C236.96 105.28 241.04 106.88 243.36 110.08C245.76 113.28 246.96 117.92 246.96 124V181.12C246.96 188.08 247.84 193.2 249.6 196.48C251.44 199.68 254.92 201.28 260.04 201.28C263.48 201.28 267.24 200.44 271.32 198.76C275.4 197.08 279.36 194.56 283.2 191.2C287.04 187.84 290.2 183.76 292.68 178.96V206.32C287.24 212.16 280.84 217.28 273.48 221.68C266.2 226 258.24 228.16 249.6 228.16C242.24 228.16 236.16 226.4 231.36 222.88C226.56 219.28 222.96 214.4 220.56 208.24C218.24 202.08 217.08 195.16 217.08 187.48V134.2ZM324.804 193.48C324.804 184.2 326.924 176.56 331.164 170.56C335.404 164.56 341.044 160.16 348.084 157.36C355.124 154.48 362.884 153.04 371.364 153.04C375.524 153.04 380.404 153.2 386.004 153.52C391.604 153.76 396.724 154.4 401.364 155.44V174.88C397.364 174 392.804 173.44 387.684 173.2C382.564 172.96 377.964 172.84 373.884 172.84C367.404 172.84 362.484 174.52 359.124 177.88C355.844 181.24 354.204 185.76 354.204 191.44C354.204 195.68 355.404 199.28 357.804 202.24C360.284 205.12 363.764 206.56 368.244 206.56C373.684 206.56 379.364 204.64 385.284 200.8C391.204 196.96 396.164 191.44 400.164 184.24L404.604 205.24C401.564 208.76 397.964 212.36 393.804 216.04C389.724 219.72 384.924 222.84 379.404 225.4C373.964 227.96 367.724 229.24 360.684 229.24C352.604 229.24 345.884 227.48 340.524 223.96C335.244 220.36 331.284 215.84 328.644 210.4C326.084 204.88 324.804 199.24 324.804 193.48ZM428.484 212.44C427.764 215.16 426.404 218.04 424.404 221.08C422.484 224.12 420.444 226.36 418.284 227.8C412.444 227.16 407.684 225.4 404.004 222.52C400.324 219.64 397.524 216.2 395.604 212.2C393.764 208.12 392.604 203.96 392.124 199.72V146.8C392.124 140.16 390.564 135.36 387.444 132.4C384.404 129.44 379.924 127.96 374.004 127.96C368.324 127.96 362.324 128.84 356.004 130.6C349.764 132.28 343.524 134.24 337.284 136.48C335.044 134.08 333.204 130.88 331.764 126.88C330.404 122.8 329.564 118.92 329.244 115.24C334.124 113.16 339.564 111.32 345.564 109.72C351.564 108.04 357.644 106.72 363.804 105.76C370.044 104.8 375.804 104.32 381.084 104.32C388.604 104.32 395.444 105.72 401.604 108.52C407.764 111.32 412.644 115.68 416.244 121.6C419.924 127.52 421.764 135.28 421.764 144.88V193.84C421.764 198 422.204 201.6 423.084 204.64C424.044 207.68 425.844 210.28 428.484 212.44ZM451.108 105.64C457.028 105.64 461.308 107.56 463.948 111.4C466.668 115.24 468.028 120.48 468.028 127.12V226C463.788 226.72 458.868 227.08 453.268 227.08C447.668 227.08 442.628 226.72 438.148 226V107.32L439.828 105.64H451.108ZM536.188 198.76C536.188 203.16 536.548 207.32 537.268 211.24C537.988 215.08 539.228 218.44 540.988 221.32C538.748 223.16 535.988 224.68 532.708 225.88C529.428 227.08 525.948 227.68 522.268 227.68C516.348 227.68 512.188 226.08 509.788 222.88C507.468 219.68 506.308 215.08 506.308 209.08V151.84C506.308 144.88 505.388 139.8 503.548 136.6C501.788 133.32 498.348 131.68 493.228 131.68C489.868 131.68 486.108 132.52 481.948 134.2C477.868 135.88 473.948 138.4 470.188 141.76C466.428 145.04 463.268 149.16 460.708 154.12V126.76C466.148 120.84 472.508 115.72 479.788 111.4C487.148 107 495.108 104.8 503.668 104.8C511.108 104.8 517.228 106.6 522.028 110.2C526.828 113.72 530.388 118.56 532.708 124.72C535.028 130.8 536.188 137.72 536.188 145.48V198.76ZM653.044 120.52C650.644 122.44 648.924 125.28 647.884 129.04C646.844 132.72 646.324 136.76 646.324 141.16V209.08C646.324 219.08 645.844 227.44 644.884 234.16C644.004 240.88 642.684 246.44 640.924 250.84C639.164 255.32 637.044 259.16 634.564 262.36C630.324 267.56 624.604 271.6 617.404 274.48C610.204 277.44 601.964 278.92 592.684 278.92C585.244 278.92 577.684 278.16 570.004 276.64C562.324 275.12 555.564 273.2 549.724 270.88C549.804 267.28 550.524 263.32 551.884 259C553.324 254.76 555.124 251.4 557.284 248.92C562.404 251.24 567.884 253.04 573.724 254.32C579.564 255.68 584.964 256.36 589.924 256.36C597.124 256.36 602.684 255.04 606.604 252.4C610.604 249.76 613.364 246.2 614.884 241.72C616.484 237.24 617.284 232.2 617.284 226.6V138.64C617.284 130 619.324 122.52 623.404 116.2C627.484 109.88 633.964 106.2 642.844 105.16C645.004 106.6 647.124 108.84 649.204 111.88C651.284 114.92 652.564 117.8 653.044 120.52ZM544.804 166.72C544.804 152.72 547.044 141.04 551.524 131.68C556.004 122.32 561.804 115.32 568.924 110.68C576.044 106.04 583.604 103.72 591.604 103.72C598.964 103.72 605.244 104.88 610.444 107.2C615.724 109.44 620.204 112.28 623.884 115.72C627.564 119.08 630.604 122.48 633.004 125.92L628.564 150.76C624.164 143.4 619.044 137.56 613.204 133.24C607.444 128.92 601.884 126.76 596.524 126.76C592.204 126.76 588.444 128.28 585.244 131.32C582.044 134.28 579.564 138.76 577.804 144.76C576.124 150.68 575.284 158.04 575.284 166.84C575.284 179.88 577.084 189.32 580.684 195.16C584.364 200.92 588.804 203.8 594.004 203.8C599.764 203.8 605.324 201.88 610.684 198.04C616.044 194.2 620.324 189.04 623.524 182.56L627.964 204.52C625.564 208.52 622.324 212.32 618.244 215.92C614.164 219.44 609.484 222.36 604.204 224.68C598.924 227 593.244 228.16 587.164 228.16C577.724 228.16 569.844 225.6 563.524 220.48C557.284 215.28 552.604 208.08 549.484 198.88C546.364 189.6 544.804 178.88 544.804 166.72ZM704.038 61.84C713.158 61.6 722.038 61.4 730.678 61.24C739.398 61.08 747.878 61 756.118 61C767.638 61 777.398 62.64 785.398 65.92C793.478 69.2 799.598 74.08 803.758 80.56C807.918 87.04 809.998 95 809.998 104.44C809.998 110.44 808.638 116.04 805.918 121.24C803.278 126.36 799.638 130.6 794.998 133.96C790.358 137.32 785.118 139.32 779.278 139.96V136.36C785.918 136.6 792.158 138.68 797.998 142.6C803.838 146.52 808.598 151.72 812.278 158.2C815.958 164.6 817.798 171.76 817.798 179.68C817.798 189.44 815.598 197.88 811.198 205C806.878 212.04 800.358 217.48 791.638 221.32C782.998 225.16 772.238 227.08 759.358 227.08C749.918 227.08 740.718 226.96 731.758 226.72C722.798 226.56 713.558 226.4 704.038 226.24L702.478 224.68V63.4L704.038 61.84ZM732.718 205C737.278 204.84 741.758 204.76 746.158 204.76C750.558 204.76 754.598 204.76 758.278 204.76C764.198 204.76 768.998 203.92 772.678 202.24C776.438 200.56 779.318 198.4 781.318 195.76C783.318 193.04 784.718 190.16 785.518 187.12C786.318 184 786.718 181 786.718 178.12C786.718 174.28 785.878 170.32 784.198 166.24C782.518 162.08 779.558 158.56 775.318 155.68C771.078 152.8 765.078 151.36 757.318 151.36H720.838V128.56H754.678C761.398 128.56 766.558 127.44 770.158 125.2C773.758 122.88 776.238 119.96 777.598 116.44C778.958 112.92 779.638 109.4 779.638 105.88C779.638 102.28 778.958 98.8 777.598 95.44C776.318 92 773.878 89.16 770.278 86.92C766.758 84.68 761.678 83.56 755.038 83.56C752.158 83.56 748.598 83.56 744.358 83.56C740.118 83.48 736.238 83.4 732.718 83.32V205ZM820.648 193.48C820.648 184.2 822.768 176.56 827.008 170.56C831.248 164.56 836.888 160.16 843.928 157.36C850.968 154.48 858.728 153.04 867.208 153.04C871.368 153.04 876.248 153.2 881.848 153.52C887.448 153.76 892.568 154.4 897.208 155.44V174.88C893.208 174 888.648 173.44 883.528 173.2C878.408 172.96 873.808 172.84 869.728 172.84C863.248 172.84 858.328 174.52 854.968 177.88C851.688 181.24 850.048 185.76 850.048 191.44C850.048 195.68 851.248 199.28 853.648 202.24C856.128 205.12 859.608 206.56 864.088 206.56C869.528 206.56 875.208 204.64 881.128 200.8C887.048 196.96 892.008 191.44 896.008 184.24L900.448 205.24C897.408 208.76 893.808 212.36 889.648 216.04C885.568 219.72 880.768 222.84 875.248 225.4C869.808 227.96 863.568 229.24 856.528 229.24C848.448 229.24 841.728 227.48 836.368 223.96C831.088 220.36 827.128 215.84 824.488 210.4C821.928 204.88 820.648 199.24 820.648 193.48ZM924.328 212.44C923.608 215.16 922.248 218.04 920.248 221.08C918.328 224.12 916.288 226.36 914.128 227.8C908.288 227.16 903.528 225.4 899.848 222.52C896.168 219.64 893.368 216.2 891.448 212.2C889.608 208.12 888.448 203.96 887.968 199.72V146.8C887.968 140.16 886.408 135.36 883.288 132.4C880.248 129.44 875.768 127.96 869.848 127.96C864.168 127.96 858.168 128.84 851.848 130.6C845.608 132.28 839.368 134.24 833.128 136.48C830.888 134.08 829.048 130.88 827.608 126.88C826.248 122.8 825.408 118.92 825.088 115.24C829.968 113.16 835.408 111.32 841.408 109.72C847.408 108.04 853.488 106.72 859.648 105.76C865.888 104.8 871.648 104.32 876.928 104.32C884.448 104.32 891.288 105.72 897.448 108.52C903.608 111.32 908.488 115.68 912.088 121.6C915.768 127.52 917.608 135.28 917.608 144.88V193.84C917.608 198 918.048 201.6 918.928 204.64C919.888 207.68 921.688 210.28 924.328 212.44ZM994.5 155.68C994.66 150.08 994.26 145.08 993.3 140.68C992.42 136.2 990.62 132.68 987.9 130.12C985.26 127.56 981.34 126.28 976.14 126.28C969.34 126.28 964.22 129.64 960.78 136.36C957.42 143 955.74 153.24 955.74 167.08C955.74 180.76 957.86 190.6 962.1 196.6C966.42 202.52 972.54 205.48 980.46 205.48C985.58 205.48 990.5 204.32 995.22 202C1000.02 199.68 1004.42 197.04 1008.42 194.08C1010.98 195.6 1013.42 198.08 1015.74 201.52C1018.14 204.96 1019.66 208.24 1020.3 211.36C1015.02 216.72 1008.42 221.04 1000.5 224.32C992.66 227.6 984.42 229.24 975.78 229.24C967.14 229.24 959.62 227.68 953.22 224.56C946.9 221.44 941.66 217.08 937.5 211.48C933.34 205.8 930.22 199.2 928.14 191.68C926.14 184.08 925.14 175.88 925.14 167.08C925.14 151.96 927.66 139.76 932.7 130.48C937.74 121.2 944.18 114.44 952.02 110.2C959.94 105.88 968.18 103.72 976.74 103.72C983.86 103.72 990.18 104.76 995.7 106.84C1001.3 108.92 1006.02 111.72 1009.86 115.24C1013.7 118.76 1016.58 122.8 1018.5 127.36C1020.5 131.84 1021.5 136.52 1021.5 141.4C1021.5 146.36 1020.22 150.2 1017.66 152.92C1015.1 155.56 1011.42 156.88 1006.62 156.88C1004.22 156.88 1002.06 156.8 1000.14 156.64C998.3 156.4 996.42 156.08 994.5 155.68ZM1021.66 193.48C1021.66 184.2 1023.78 176.56 1028.02 170.56C1032.26 164.56 1037.9 160.16 1044.94 157.36C1051.98 154.48 1059.74 153.04 1068.22 153.04C1072.38 153.04 1077.26 153.2 1082.86 153.52C1088.46 153.76 1093.58 154.4 1098.22 155.44V174.88C1094.22 174 1089.66 173.44 1084.54 173.2C1079.42 172.96 1074.82 172.84 1070.74 172.84C1064.26 172.84 1059.34 174.52 1055.98 177.88C1052.7 181.24 1051.06 185.76 1051.06 191.44C1051.06 195.68 1052.26 199.28 1054.66 202.24C1057.14 205.12 1060.62 206.56 1065.1 206.56C1070.54 206.56 1076.22 204.64 1082.14 200.8C1088.06 196.96 1093.02 191.44 1097.02 184.24L1101.46 205.24C1098.42 208.76 1094.82 212.36 1090.66 216.04C1086.58 219.72 1081.78 222.84 1076.26 225.4C1070.82 227.96 1064.58 229.24 1057.54 229.24C1049.46 229.24 1042.74 227.48 1037.38 223.96C1032.1 220.36 1028.14 215.84 1025.5 210.4C1022.94 204.88 1021.66 199.24 1021.66 193.48ZM1125.34 212.44C1124.62 215.16 1123.26 218.04 1121.26 221.08C1119.34 224.12 1117.3 226.36 1115.14 227.8C1109.3 227.16 1104.54 225.4 1100.86 222.52C1097.18 219.64 1094.38 216.2 1092.46 212.2C1090.62 208.12 1089.46 203.96 1088.98 199.72V146.8C1088.98 140.16 1087.42 135.36 1084.3 132.4C1081.26 129.44 1076.78 127.96 1070.86 127.96C1065.18 127.96 1059.18 128.84 1052.86 130.6C1046.62 132.28 1040.38 134.24 1034.14 136.48C1031.9 134.08 1030.06 130.88 1028.62 126.88C1027.26 122.8 1026.42 118.92 1026.1 115.24C1030.98 113.16 1036.42 111.32 1042.42 109.72C1048.42 108.04 1054.5 106.72 1060.66 105.76C1066.9 104.8 1072.66 104.32 1077.94 104.32C1085.46 104.32 1092.3 105.72 1098.46 108.52C1104.62 111.32 1109.5 115.68 1113.1 121.6C1116.78 127.52 1118.62 135.28 1118.62 144.88V193.84C1118.62 198 1119.06 201.6 1119.94 204.64C1120.9 207.68 1122.7 210.28 1125.34 212.44Z" fill="black"/>
</svg>
